<?xml version="1.0" encoding="UTF-8" standalone="no"?>
<svg
   xmlns:dc="http://purl.org/dc/elements/1.1/"
   xmlns:cc="http://creativecommons.org/ns#"
   xmlns:rdf="http://www.w3.org/1999/02/22-rdf-syntax-ns#"
   xmlns:svg="http://www.w3.org/2000/svg"
   xmlns="http://www.w3.org/2000/svg"
   xmlns:sodipodi="http://sodipodi.sourceforge.net/DTD/sodipodi-0.dtd"
   xmlns:inkscape="http://www.inkscape.org/namespaces/inkscape"
   version="1.1"
   id="svg4287"
   viewBox="0 0 184.43789 184.43789"
   height="52.052471mm"
   width="52.052471mm"
   inkscape:version="0.91 r13725"
   sodipodi:docname="处理器标志矢量白底.svg">
  <sodipodi:namedview
     pagecolor="#ffffff"
     bordercolor="#666666"
     borderopacity="1"
     objecttolerance="10"
     gridtolerance="10"
     guidetolerance="10"
     inkscape:pageopacity="0"
     inkscape:pageshadow="2"
     inkscape:window-width="1839"
     inkscape:window-height="1050"
     id="namedview133"
     showgrid="false"
     inkscape:zoom="3.3852875"
     inkscape:cx="80.473503"
     inkscape:cy="60.964116"
     inkscape:window-x="81"
     inkscape:window-y="30"
     inkscape:window-maximized="1"
     inkscape:current-layer="layer1"
     fit-margin-top="0"
     fit-margin-left="0"
     fit-margin-right="0"
     fit-margin-bottom="0"
     showguides="false" />
  <defs
     id="defs4289" />
  <metadata
     id="metadata4292">
    <rdf:RDF>
      <cc:Work
         rdf:about="">
        <dc:format>image/svg+xml</dc:format>
        <dc:type
           rdf:resource="http://purl.org/dc/dcmitype/StillImage" />
        <dc:title />
      </cc:Work>
    </rdf:RDF>
  </metadata>
  <g
     transform="translate(-790.075,-492.41832)"
     id="layer1">
    <circle
       r="19.718945"
       cy="584.63727"
       cx="952.29395"
       id="path3357-02"
       style="display:inline;fill:#0093dd;fill-opacity:1;stroke:#221a70;stroke-width:5;stroke-miterlimit:4;stroke-dasharray:none;stroke-opacity:1" />
    <circle
       r="19.718945"
       cy="654.63727"
       cx="882.29395"
       id="path3357-4-8"
       style="display:inline;fill:#0093dd;fill-opacity:1;stroke:#221a70;stroke-width:5;stroke-miterlimit:4;stroke-dasharray:none;stroke-opacity:1" />
    <circle
       r="19.718945"
       cy="584.63727"
       cx="812.29395"
       id="path3357-1-3"
       style="display:inline;fill:#0093dd;fill-opacity:1;stroke:#221a70;stroke-width:5;stroke-miterlimit:4;stroke-dasharray:none;stroke-opacity:1" />
    <circle
       r="19.718945"
       cy="514.63727"
       cx="882.29395"
       id="path3357-5-8"
       style="display:inline;fill:#0093dd;fill-opacity:1;stroke:#221a70;stroke-width:5;stroke-miterlimit:4;stroke-dasharray:none;stroke-opacity:1" />
    <text
       id="text4188-0"
       y="599.22559"
       x="801.18945"
       style="font-style:normal;font-weight:normal;font-size:40px;line-height:125%;font-family:sans-serif;letter-spacing:0px;word-spacing:0px;display:inline;fill:#ffffff;fill-opacity:1;stroke:none;stroke-width:1px;stroke-linecap:butt;stroke-linejoin:miter;stroke-opacity:1"
       xml:space="preserve"
       sodipodi:linespacing="125%"><tspan
         style="font-style:normal;font-variant:normal;font-weight:normal;font-stretch:normal;font-family:'Source Han Sans CN';-inkscape-font-specification:'Source Han Sans CN';fill:#ffffff;fill-opacity:1"
         y="599.22559"
         x="801.18945"
         id="tspan4190-40">0</tspan></text>
    <text
       id="text4192-9"
       y="598.7049"
       x="940.95636"
       style="font-style:normal;font-variant:normal;font-weight:normal;font-stretch:normal;font-size:40px;line-height:125%;font-family:'Source Han Sans CN';-inkscape-font-specification:'Source Han Sans CN';letter-spacing:0px;word-spacing:0px;display:inline;fill:#ffffff;fill-opacity:1;stroke:none;stroke-width:1px;stroke-linecap:butt;stroke-linejoin:miter;stroke-opacity:1"
       xml:space="preserve"
       sodipodi:linespacing="125%"><tspan
         y="598.7049"
         x="940.95636"
         id="tspan4194-1">1</tspan></text>
    <path
       id="path4183-9"
       d="m 868.35055,528.58067 -42.11321,42.1132"
       style="display:inline;fill:none;fill-rule:evenodd;stroke:#221a70;stroke-width:5;stroke-linecap:butt;stroke-linejoin:miter;stroke-miterlimit:4;stroke-dasharray:none;stroke-opacity:1"
       inkscape:connector-curvature="0" />
    <path
       id="path4185-6"
       d="m 896.23734,640.69387 42.11321,-42.1132"
       style="display:inline;fill:none;fill-rule:evenodd;stroke:#221a70;stroke-width:5;stroke-linecap:butt;stroke-linejoin:miter;stroke-miterlimit:4;stroke-dasharray:none;stroke-opacity:1"
       inkscape:connector-curvature="0" />
    <path
       id="path4154-25"
       d="m 832.01289,584.63727 100.56211,0"
       style="display:inline;fill:none;fill-rule:evenodd;stroke:#221a70;stroke-width:5;stroke-linecap:butt;stroke-linejoin:miter;stroke-miterlimit:4;stroke-dasharray:none;stroke-opacity:1"
       inkscape:connector-curvature="0" />
    <path
       id="path4156-4"
       d="m 882.29395,534.35621 0,100.56211"
       style="display:inline;fill:none;fill-rule:evenodd;stroke:#221a70;stroke-width:5;stroke-linecap:butt;stroke-linejoin:miter;stroke-miterlimit:4;stroke-dasharray:none;stroke-opacity:1"
       inkscape:connector-curvature="0" />
    <path
       id="path4186-4"
       d="m 834.1141,580.94478 c -0.39871,-2.73263 -1.94229,-6.52364 -3.6953,-9.07563 l -0.75397,-1.09764 19.33679,-19.31854 c 10.63523,-10.6252 19.40905,-19.31854 19.49737,-19.31854 0.0883,0 0.85478,0.4631 1.70322,1.02908 1.90628,1.2717 5.05564,2.55906 7.63264,3.12001 l 1.94935,0.42433 0,22.71525 0,22.71524 -22.74798,0 -22.74796,0 -0.17416,-1.19356 z"
       style="display:inline;fill:#76c5f0;fill-opacity:1;stroke:none;stroke-width:0;stroke-miterlimit:4;stroke-dasharray:none;stroke-opacity:1"
       inkscape:connector-curvature="0" />
    <path
       id="path4188-9"
       d="m 895.07652,636.43792 c -2.18168,-1.64587 -7.56683,-3.75823 -9.58109,-3.75823 l -0.70342,0 0,-22.85076 0,-22.85075 23.23534,0 c 22.26089,0 23.23535,0.0192 23.23535,0.45745 0,0.80922 0.97267,4.18026 1.63737,5.67471 0.35479,0.79768 1.12013,2.19828 1.70076,3.11241 l 1.05571,1.66208 -19.78214,19.6597 -19.78214,19.65969 -1.01574,-0.7663 z"
       style="display:inline;fill:#76c5f0;fill-opacity:1;stroke:none;stroke-width:0;stroke-miterlimit:4;stroke-dasharray:none;stroke-opacity:1"
       inkscape:connector-curvature="0" />
    <path
       id="path4348"
       d="m 826.23734,598.58067 42.11321,42.1132"
       style="display:inline;fill:none;fill-rule:evenodd;stroke:#221a70;stroke-width:5;stroke-linecap:butt;stroke-linejoin:miter;stroke-miterlimit:4;stroke-dasharray:none;stroke-opacity:1"
       inkscape:connector-curvature="0" />
    <path
       id="path4350"
       d="m 896.23734,528.58067 42.11321,42.1132"
       style="display:inline;fill:none;fill-rule:evenodd;stroke:#221a70;stroke-width:5;stroke-linecap:butt;stroke-linejoin:miter;stroke-miterlimit:4;stroke-dasharray:none;stroke-opacity:1"
       inkscape:connector-curvature="0" />
    <rect
       y="553.23615"
       x="851.03229"
       height="7.4425488"
       width="7.4425488"
       id="rect4352"
       style="display:inline;fill:none;fill-opacity:1;stroke:#221a70;stroke-width:2.55745125;stroke-miterlimit:4;stroke-dasharray:none;stroke-opacity:1" />
    <rect
       y="553.24084"
       x="866.03137"
       height="7.4425488"
       width="7.4425488"
       id="rect4352-0"
       style="display:inline;fill:none;fill-opacity:1;stroke:#221a70;stroke-width:2.55745125;stroke-miterlimit:4;stroke-dasharray:none;stroke-opacity:1" />
    <rect
       y="568.23535"
       x="851.03003"
       height="7.4425488"
       width="7.4425488"
       id="rect4352-5"
       style="display:inline;fill:none;fill-opacity:1;stroke:#221a70;stroke-width:2.55745125;stroke-miterlimit:4;stroke-dasharray:none;stroke-opacity:1" />
    <rect
       y="568.24005"
       x="866.02911"
       height="7.4425488"
       width="7.4425488"
       id="rect4352-0-0"
       style="display:inline;fill:none;fill-opacity:1;stroke:#221a70;stroke-width:2.55745125;stroke-miterlimit:4;stroke-dasharray:none;stroke-opacity:1" />
    <rect
       y="553.24121"
       x="891.03528"
       height="7.4425488"
       width="7.4425488"
       id="rect4352-2"
       style="display:inline;fill:none;fill-opacity:1;stroke:#221a70;stroke-width:2.55745125;stroke-miterlimit:4;stroke-dasharray:none;stroke-opacity:1" />
    <rect
       y="553.24591"
       x="906.03436"
       height="7.4425488"
       width="7.4425488"
       id="rect4352-0-9"
       style="display:inline;fill:none;fill-opacity:1;stroke:#221a70;stroke-width:2.55745125;stroke-miterlimit:4;stroke-dasharray:none;stroke-opacity:1" />
    <rect
       y="568.24042"
       x="891.03302"
       height="7.4425488"
       width="7.4425488"
       id="rect4352-5-4"
       style="display:inline;fill:none;fill-opacity:1;stroke:#221a70;stroke-width:2.55745125;stroke-miterlimit:4;stroke-dasharray:none;stroke-opacity:1" />
    <rect
       y="568.24512"
       x="906.0321"
       height="7.4425488"
       width="7.4425488"
       id="rect4352-0-0-3"
       style="display:inline;fill:none;fill-opacity:1;stroke:#221a70;stroke-width:2.55745125;stroke-miterlimit:4;stroke-dasharray:none;stroke-opacity:1" />
    <rect
       y="593.23059"
       x="851.02924"
       height="7.4425488"
       width="7.4425488"
       id="rect4352-51"
       style="display:inline;fill:none;fill-opacity:1;stroke:#221a70;stroke-width:2.55745125;stroke-miterlimit:4;stroke-dasharray:none;stroke-opacity:1" />
    <rect
       y="593.23529"
       x="866.02832"
       height="7.4425488"
       width="7.4425488"
       id="rect4352-0-7"
       style="display:inline;fill:none;fill-opacity:1;stroke:#221a70;stroke-width:2.55745125;stroke-miterlimit:4;stroke-dasharray:none;stroke-opacity:1" />
    <rect
       y="608.2298"
       x="851.02698"
       height="7.4425488"
       width="7.4425488"
       id="rect4352-5-43"
       style="display:inline;fill:none;fill-opacity:1;stroke:#221a70;stroke-width:2.55745125;stroke-miterlimit:4;stroke-dasharray:none;stroke-opacity:1" />
    <rect
       y="608.2345"
       x="866.02606"
       height="7.4425488"
       width="7.4425488"
       id="rect4352-0-0-1"
       style="display:inline;fill:none;fill-opacity:1;stroke:#221a70;stroke-width:2.55745125;stroke-miterlimit:4;stroke-dasharray:none;stroke-opacity:1" />
    <rect
       y="593.24121"
       x="891.03528"
       height="7.4425488"
       width="7.4425488"
       id="rect4352-22"
       style="display:inline;fill:none;fill-opacity:1;stroke:#221a70;stroke-width:2.55745125;stroke-miterlimit:4;stroke-dasharray:none;stroke-opacity:1" />
    <rect
       y="593.24591"
       x="906.03436"
       height="7.4425488"
       width="7.4425488"
       id="rect4352-0-6"
       style="display:inline;fill:none;fill-opacity:1;stroke:#221a70;stroke-width:2.55745125;stroke-miterlimit:4;stroke-dasharray:none;stroke-opacity:1" />
    <rect
       y="608.24042"
       x="891.03302"
       height="7.4425488"
       width="7.4425488"
       id="rect4352-5-41"
       style="display:inline;fill:none;fill-opacity:1;stroke:#221a70;stroke-width:2.55745125;stroke-miterlimit:4;stroke-dasharray:none;stroke-opacity:1" />
    <rect
       y="608.24512"
       x="906.0321"
       height="7.4425488"
       width="7.4425488"
       id="rect4352-0-0-2"
       style="display:inline;fill:none;fill-opacity:1;stroke:#221a70;stroke-width:2.55745125;stroke-miterlimit:4;stroke-dasharray:none;stroke-opacity:1" />
    <path
       style="opacity:1;fill:#ffffff;fill-opacity:1;stroke:none;stroke-width:1;stroke-linecap:butt;stroke-linejoin:miter;stroke-miterlimit:4;stroke-dasharray:none;stroke-dashoffset:0;stroke-opacity:1"
       d="m 94.758936,67.026697 0,-22.661103 0.234986,-0.04633 c 0.129243,-0.02549 0.792898,-0.145835 1.47479,-0.267445 2.901418,-0.517444 6.191108,-1.930481 8.734048,-3.75158 l 0.88772,-0.635734 19.34446,19.34305 c 16.78204,16.78082 19.32753,19.365763 19.21663,19.514512 -2.52821,3.39124 -3.82229,6.489983 -4.52121,10.826314 l -0.0547,0.339424 -22.65836,0 -22.658364,0 0,-22.661103 z m 14.934664,12.530596 0,-5.013034 -5.01303,0 -5.013037,0 0,5.013034 0,5.013035 5.013037,0 5.01303,0 0,-5.013035 z m 15.0391,0 0,-5.013034 -5.06525,0 -5.06525,0 0,5.013034 0,5.013035 5.06525,0 5.06525,0 0,-5.013035 z m -15.0391,-14.986884 0,-5.065253 -5.01303,0 -5.013037,0 0,5.065253 0,5.065254 5.013037,0 5.01303,0 0,-5.065254 z m 15.0391,0 0,-5.065253 -5.06525,0 -5.06525,0 0,4.995627 c 0,2.747596 0.0313,5.02696 0.0696,5.065254 0.0383,0.03829 2.31766,0.06963 5.06526,0.06963 l 4.99562,0 0,-5.065254 z"
       id="path4165"
       inkscape:connector-curvature="0"
       transform="translate(790.075,492.41832)" />
    <path
       style="opacity:1;fill:#ffffff;fill-opacity:1;stroke:none;stroke-width:1;stroke-linecap:butt;stroke-linejoin:miter;stroke-miterlimit:4;stroke-dasharray:none;stroke-dashoffset:0;stroke-opacity:1"
       d="m 102.27849,64.51819 0,-2.402079 2.40208,0 2.40208,0 0,2.402079 0,2.402079 -2.40208,0 -2.40208,0 0,-2.402079 z"
       id="path4167"
       inkscape:connector-curvature="0"
       transform="translate(790.075,492.41832)" />
    <path
       style="opacity:1;fill:#ffffff;fill-opacity:1;stroke:none;stroke-width:1;stroke-linecap:butt;stroke-linejoin:miter;stroke-miterlimit:4;stroke-dasharray:none;stroke-dashoffset:0;stroke-opacity:1"
       d="m 117.31759,64.51819 0,-2.402079 2.40208,0 2.40208,0 0,2.402079 0,2.402079 -2.40208,0 -2.40208,0 0,-2.402079 z"
       id="path4169"
       inkscape:connector-curvature="0"
       transform="translate(790.075,492.41832)" />
    <path
       style="opacity:1;fill:#ffffff;fill-opacity:1;stroke:none;stroke-width:1;stroke-linecap:butt;stroke-linejoin:miter;stroke-miterlimit:4;stroke-dasharray:none;stroke-dashoffset:0;stroke-opacity:1"
       d="m 117.31759,79.557293 0,-2.402079 2.40208,0 2.40208,0 0,2.402079 0,2.402079 -2.40208,0 -2.40208,0 0,-2.402079 z"
       id="path4171"
       inkscape:connector-curvature="0"
       transform="translate(790.075,492.41832)" />
    <path
       style="opacity:1;fill:#ffffff;fill-opacity:1;stroke:none;stroke-width:1;stroke-linecap:butt;stroke-linejoin:miter;stroke-miterlimit:4;stroke-dasharray:none;stroke-dashoffset:0;stroke-opacity:1"
       d="m 102.27849,79.557293 0,-2.402079 2.40208,0 2.40208,0 0,2.402079 0,2.402079 -2.40208,0 -2.40208,0 0,-2.402079 z"
       id="path4173"
       inkscape:connector-curvature="0"
       transform="translate(790.075,492.41832)" />
    <path
       style="opacity:1;fill:#ffffff;fill-opacity:1;stroke:none;stroke-width:1;stroke-linecap:butt;stroke-linejoin:miter;stroke-miterlimit:4;stroke-dasharray:none;stroke-dashoffset:0;stroke-opacity:1"
       d="m 59.000383,125.41142 -19.345303,-19.34541 0.238638,-0.31688 c 1.105964,-1.46858 2.389471,-3.73355 3.001099,-5.29595 0.69752,-1.781811 1.009008,-2.985317 1.411094,-5.452095 l 0.03912,-0.240009 22.668288,0 22.668288,0 0,22.667104 0,22.66711 -0.350783,0.0492 c -3.759435,0.52722 -7.092439,1.86556 -10.245202,4.11386 -0.384458,0.27416 -0.708221,0.49848 -0.719476,0.49848 -0.01125,0 -8.725848,-8.70543 -19.365764,-19.34541 z m 10.705078,-5.87401 0,-5.02173 -5.040192,-0.019 -5.040192,-0.019 0,5.00993 c 0,2.75546 0.02238,5.03232 0.04974,5.05968 0.02736,0.0274 2.295446,0.0412 5.040192,0.0308 l 4.990448,-0.019 0,-5.02173 z m 14.991341,0 0,-5.02173 -5.02173,0 -5.02173,0 -0.01912,4.94788 c -0.01052,2.72133 -0.0032,4.98965 0.01634,5.04071 0.0281,0.0735 1.075739,0.0889 5.040856,0.0738 l 5.005387,-0.019 0,-5.02173 z m 0.01897,-15.00981 0.01897,-5.04019 -5.059167,0 -5.059167,0 0,5.00942 c 0,2.75518 0.02238,5.03181 0.04974,5.05917 0.02736,0.0274 2.295446,0.0412 5.040193,0.0308 l 4.990447,-0.019 0.01897,-5.04019 z m -14.991338,0 -0.01898,-5.003266 -5.040192,-0.01897 -5.040192,-0.01897 0,5.022246 0,5.02224 5.05917,0 5.059171,0 -0.01898,-5.00327 z"
       id="path4187"
       inkscape:connector-curvature="0"
       transform="translate(790.075,492.41832)" />
    <path
       style="opacity:1;fill:#ffffff;fill-opacity:1;stroke:none;stroke-width:1;stroke-linecap:butt;stroke-linejoin:miter;stroke-miterlimit:4;stroke-dasharray:none;stroke-dashoffset:0;stroke-opacity:1"
       d="m 62.283639,104.54606 0,-2.40009 2.400092,0 2.400092,0 0,2.40009 0,2.4001 -2.400092,0 -2.400092,0 0,-2.4001 z"
       id="path4189"
       inkscape:connector-curvature="0"
       transform="translate(790.075,492.41832)" />
    <path
       style="opacity:1;fill:#ffffff;fill-opacity:1;stroke:none;stroke-width:1;stroke-linecap:butt;stroke-linejoin:miter;stroke-miterlimit:4;stroke-dasharray:none;stroke-dashoffset:0;stroke-opacity:1"
       d="m 77.274981,104.54606 0,-2.40009 2.400091,0 2.400092,0 0,2.40009 0,2.4001 -2.400092,0 -2.400091,0 0,-2.4001 z"
       id="path4191"
       inkscape:connector-curvature="0"
       transform="translate(790.075,492.41832)" />
    <path
       style="opacity:1;fill:#ffffff;fill-opacity:1;stroke:none;stroke-width:1;stroke-linecap:butt;stroke-linejoin:miter;stroke-miterlimit:4;stroke-dasharray:none;stroke-dashoffset:0;stroke-opacity:1"
       d="m 77.274981,119.53741 0,-2.4001 2.400091,0 2.400092,0 0,2.4001 0,2.40009 -2.400092,0 -2.400091,0 0,-2.40009 z"
       id="path4193"
       inkscape:connector-curvature="0"
       transform="translate(790.075,492.41832)" />
    <path
       style="opacity:1;fill:#ffffff;fill-opacity:1;stroke:none;stroke-width:1;stroke-linecap:butt;stroke-linejoin:miter;stroke-miterlimit:4;stroke-dasharray:none;stroke-dashoffset:0;stroke-opacity:1"
       d="m 62.283639,119.53741 0,-2.4001 2.400092,0 2.400092,0 0,2.4001 0,2.40009 -2.400092,0 -2.400092,0 0,-2.40009 z"
       id="path4195"
       inkscape:connector-curvature="0"
       transform="translate(790.075,492.41832)" />
  </g>
</svg>
